<!--?xml version="1.0" standalone="no"?-->
              <svg id="sw-js-blob-svg" viewBox="0 0 100 100" xmlns="http://www.w3.org/2000/svg" version="1.1">
                    <defs> 
                        <linearGradient id="sw-gradient" x1="0" x2="1" y1="1" y2="0">
                            <stop id="stop1" stop-color="rgba(248, 117, 55, 1)" offset="0%"></stop>
                            <stop id="stop2" stop-color="rgba(251, 168, 31, 1)" offset="100%"></stop>
                        </linearGradient>
                    </defs>
                <path fill="url(#sw-gradient)" d="M6.8,-8.7C7,-7.9,4.2,-4.1,7.2,0.6C10.1,5.2,18.9,10.6,20.1,14.4C21.2,18.1,14.7,20.3,7.3,25C0,29.8,-8.1,37.2,-14.8,36.5C-21.4,35.9,-26.6,27.1,-27.3,19.1C-27.9,11.1,-24,3.8,-22.7,-4.1C-21.4,-12,-22.8,-20.4,-19.4,-20.6C-16.1,-20.8,-8.1,-12.9,-2.4,-10C3.3,-7.2,6.6,-9.5,6.8,-8.7Z" width="100%" height="100%" transform="translate(50 50)" stroke-width="0" style="transition: all 0.3s ease 0s;"></path>
              </svg>